<svg xmlns="http://www.w3.org/2000/svg" width="720" height="40" viewBox="0 0 720 40" shape-rendering="geometricPrecision">
  <defs>
    <style>
      .outline { stroke:#000000; stroke-width:1.6; stroke-linejoin:round; stroke-linecap:round; }
      .body { fill:#5B2B7A; }
      .shadow { fill:#4a235f; }
      .eye-sclera { fill:#FFFFFF; }
      .pupil { fill:#E03B3B; }
      .mouth { fill:#2b0b0b; }
      .tooth { fill:#FFFFFF; }
      .leg { fill:#4a235f; }
      .flash { fill:#FFFFFF; opacity:0.9; }
      .smoke { fill:#6a3a8a; opacity:0.95; }
    </style>
  </defs>

  <!-- Idle frames 0-2 -->
  <g transform="translate(0,0)">
    <ellipse class="outline body" cx="20" cy="22" rx="14" ry="10"/>
    <ellipse class="shadow" cx="20" cy="28" rx="10" ry="3"/>
    <ellipse class="outline eye-sclera" cx="14" cy="16" rx="4" ry="3"/>
    <ellipse class="outline eye-sclera" cx="26" cy="16" rx="4" ry="3"/>
    <circle class="pupil" cx="15.5" cy="16" r="1.6"/>
    <circle class="pupil" cx="24.5" cy="16" r="1.6"/>
    <path class="outline" d="M11 13 L15 14" />
    <path class="outline" d="M29 13 L25 14" />
    <path class="outline mouth" d="M12 22 q8 6 16 0 q-8 6 -16 0" />
    <rect class="tooth outline" x="18" y="20" width="4" height="4" rx="0.8"/>
    <ellipse class="outline leg" cx="14" cy="32" rx="3" ry="2"/>
    <ellipse class="outline leg" cx="26" cy="32" rx="3" ry="2"/>
  </g>

  <g transform="translate(40,0)">
    <ellipse class="outline body" cx="20" cy="21.5" rx="15" ry="10.5"/>
    <ellipse class="shadow" cx="20" cy="28.5" rx="10" ry="3"/>
    <ellipse class="outline eye-sclera" cx="14" cy="16" rx="4" ry="3"/>
    <ellipse class="outline eye-sclera" cx="26" cy="16" rx="4" ry="3"/>
    <circle class="pupil" cx="17" cy="16" r="1.6"/>
    <circle class="pupil" cx="25" cy="16" r="1.6"/>
    <path class="outline" d="M11 13 L15 14" />
    <path class="outline" d="M29 13 L25 14" />
    <path class="outline mouth" d="M12 22 q8 6 16 0 q-8 6 -16 0" />
    <rect class="tooth outline" x="18" y="20" width="4" height="4" rx="0.8"/>
    <ellipse class="outline leg" cx="13" cy="32" rx="3" ry="2"/>
    <ellipse class="outline leg" cx="27" cy="32" rx="3" ry="2"/>
  </g>

  <g transform="translate(80,0)">
    <ellipse class="outline body" cx="20" cy="22.5" rx="13.5" ry="9.5"/>
    <ellipse class="shadow" cx="20" cy="29" rx="9" ry="2.8"/>
    <ellipse class="outline eye-sclera" cx="14" cy="16" rx="4" ry="3"/>
    <ellipse class="outline eye-sclera" cx="26" cy="16" rx="4" ry="3"/>
    <circle class="pupil" cx="14.5" cy="16" r="1.6"/>
    <circle class="pupil" cx="23.5" cy="16" r="1.6"/>
    <path class="outline" d="M11 13 L15 14" />
    <path class="outline" d="M29 13 L25 14" />
    <path class="outline mouth" d="M12 22 q8 6 16 0 q-8 6 -16 0" />
    <rect class="tooth outline" x="18" y="20" width="4" height="4" rx="0.8"/>
    <ellipse class="outline leg" cx="14" cy="32" rx="3" ry="2"/>
    <ellipse class="outline leg" cx="26" cy="32" rx="3" ry="2"/>
  </g>

  <!-- Move frames 3-6 -->
  <g transform="translate(120,0)">
    <ellipse class="outline body" cx="20" cy="21.5" rx="14.5" ry="10"/>
    <ellipse class="shadow" cx="20" cy="28.2" rx="10" ry="3"/>
    <ellipse class="outline eye-sclera" cx="14" cy="15.5" rx="4" ry="3"/>
    <ellipse class="outline eye-sclera" cx="26" cy="15.5" rx="4" ry="3"/>
    <circle class="pupil" cx="15.5" cy="15.5" r="1.6"/>
    <circle class="pupil" cx="24.5" cy="15.5" r="1.6"/>
    <path class="outline mouth" d="M12 22 q8 6 16 0 q-8 6 -16 0" />
    <rect class="tooth outline" x="18" y="20" width="4" height="4" rx="0.8"/>
    <ellipse class="outline leg" cx="12" cy="30.5" rx="3" ry="2.2"/>
    <ellipse class="outline leg" cx="28" cy="33" rx="3" ry="2.2"/>
  </g>

  <g transform="translate(160,0)">
    <ellipse class="outline body" cx="20" cy="22.5" rx="14" ry="10.5"/>
    <ellipse class="shadow" cx="20" cy="29" rx="10" ry="3"/>
    <ellipse class="outline eye-sclera" cx="14" cy="16.5" rx="4" ry="3"/>
    <ellipse class="outline eye-sclera" cx="26" cy="16.5" rx="4" ry="3"/>
    <circle class="pupil" cx="15.5" cy="16.5" r="1.6"/>
    <circle class="pupil" cx="24.5" cy="16.5" r="1.6"/>
    <path class="outline mouth" d="M12 22 q8 6 16 0 q-8 6 -16 0" />
    <rect class="tooth outline" x="18" y="20" width="4" height="4" rx="0.8"/>
    <ellipse class="outline leg" cx="14" cy="32" rx="3" ry="2.2"/>
    <ellipse class="outline leg" cx="26" cy="32" rx="3" ry="2.2"/>
  </g>

  <g transform="translate(200,0)">
    <ellipse class="outline body" cx="20" cy="21.2" rx="15" ry="9.6"/>
    <ellipse class="shadow" cx="20" cy="28" rx="10.5" ry="3"/>
    <ellipse class="outline eye-sclera" cx="14" cy="15.2" rx="4" ry="3"/>
    <ellipse class="outline eye-sclera" cx="26" cy="15.2" rx="4" ry="3"/>
    <circle class="pupil" cx="16.5" cy="15.2" r="1.6"/>
    <circle class="pupil" cx="23.5" cy="15.2" r="1.6"/>
    <path class="outline mouth" d="M12 22 q8 6 16 0 q-8 6 -16 0" />
    <rect class="tooth outline" x="18" y="20" width="4" height="4" rx="0.8"/>
    <ellipse class="outline leg" cx="12" cy="33" rx="3" ry="2.2"/>
    <ellipse class="outline leg" cx="28" cy="30.5" rx="3" ry="2.2"/>
  </g>

  <g transform="translate(240,0)">
    <ellipse class="outline body" cx="20" cy="22.8" rx="14" ry="10.2"/>
    <ellipse class="shadow" cx="20" cy="29.2" rx="9.5" ry="3"/>
    <ellipse class="outline eye-sclera" cx="14" cy="16.8" rx="4" ry="3"/>
    <ellipse class="outline eye-sclera" cx="26" cy="16.8" rx="4" ry="3"/>
    <circle class="pupil" cx="15" cy="16.8" r="1.6"/>
    <circle class="pupil" cx="25" cy="16.8" r="1.6"/>
    <path class="outline mouth" d="M12 22 q8 6 16 0 q-8 6 -16 0" />
    <rect class="tooth outline" x="18" y="20" width="4" height="4" rx="0.8"/>
    <ellipse class="outline leg" cx="14" cy="31" rx="3" ry="2.2"/>
    <ellipse class="outline leg" cx="26" cy="31" rx="3" ry="2.2"/>
  </g>

  <!-- Attack frames 7-9 -->
  <g transform="translate(280,0)">
    <ellipse class="outline body" cx="20" cy="22" rx="14" ry="10"/>
    <ellipse class="shadow" cx="20" cy="28" rx="10" ry="3"/>
    <ellipse class="outline eye-sclera" cx="14" cy="15.5" rx="4" ry="3"/>
    <ellipse class="outline eye-sclera" cx="26" cy="15.5" rx="4" ry="3"/>
    <circle class="pupil" cx="15.5" cy="15.5" r="1.6"/>
    <circle class="pupil" cx="24.5" cy="15.5" r="1.6"/>
    <path class="outline mouth" d="M12 22 q8 6 16 0 q-8 6 -16 0" />
    <rect class="tooth outline" x="18" y="20" width="4" height="4" rx="0.8"/>
    <ellipse class="outline leg" cx="14" cy="32" rx="3" ry="2"/>
    <ellipse class="outline leg" cx="26" cy="32" rx="3" ry="2"/>
  </g>

  <g transform="translate(320,0)">
    <g transform="translate(2,0)">
      <ellipse class="outline body" cx="20" cy="20.5" rx="15.5" ry="9.5"/>
      <ellipse class="shadow" cx="20" cy="27" rx="10.5" ry="3"/>
      <ellipse class="outline eye-sclera" cx="14" cy="14.5" rx="4" ry="3"/>
      <ellipse class="outline eye-sclera" cx="26" cy="14.5" rx="4" ry="3"/>
      <circle class="pupil" cx="15.5" cy="14.5" r="1.6"/>
      <circle class="pupil" cx="24.5" cy="14.5" r="1.6"/>
      <path class="outline mouth" d="M10 22 q10 12 20 0 q-10 12 -20 0" fill="#2b0b0b"/>
      <rect class="tooth outline" x="12" y="18" width="3" height="4" rx="0.6"/>
      <rect class="tooth outline" x="17" y="18" width="3" height="4" rx="0.6"/>
      <rect class="tooth outline" x="22" y="18" width="3" height="4" rx="0.6"/>
      <ellipse class="outline leg" cx="12" cy="33" rx="3" ry="2"/>
      <ellipse class="outline leg" cx="28" cy="33" rx="3" ry="2"/>
    </g>
  </g>

  <g transform="translate(360,0)">
    <ellipse class="outline body" cx="20" cy="22.5" rx="14" ry="9.5"/>
    <ellipse class="shadow" cx="20" cy="29" rx="9.5" ry="3"/>
    <ellipse class="outline eye-sclera" cx="14" cy="16" rx="4" ry="3"/>
    <ellipse class="outline eye-sclera" cx="26" cy="16" rx="4" ry="3"/>
    <circle class="pupil" cx="15.5" cy="16" r="1.6"/>
    <circle class="pupil" cx="24.5" cy="16" r="1.6"/>
    <path class="outline mouth" d="M12 22 q8 6 16 0 q-8 6 -16 0" />
    <rect class="tooth outline" x="18" y="20" width="4" height="4" rx="0.8"/>
    <ellipse class="outline leg" cx="14" cy="32" rx="3" ry="2"/>
    <ellipse class="outline leg" cx="26" cy="32" rx="3" ry="2"/>
  </g>

  <!-- Hit frames 10-11 -->
  <g transform="translate(400,0)">
    <ellipse class="outline body" cx="20" cy="24" rx="16" ry="7.5"/>
    <ellipse class="shadow" cx="20" cy="29.5" rx="9" ry="2.5"/>
    <ellipse class="outline eye-sclera" cx="14" cy="16.5" rx="3.2" ry="2.2"/>
    <ellipse class="outline eye-sclera" cx="26" cy="16.5" rx="3.2" ry="2.2"/>
    <circle class="pupil" cx="15" cy="16.5" r="1.2"/>
    <circle class="pupil" cx="25" cy="16.5" r="1.2"/>
    <path class="outline mouth" d="M14 22 q6 3 12 0" />
    <rect class="tooth outline" x="18" y="20" width="3" height="3" rx="0.6"/>
    <ellipse class="outline leg" cx="14" cy="33" rx="2.6" ry="1.8"/>
    <ellipse class="outline leg" cx="26" cy="33" rx="2.6" ry="1.8"/>
  </g>

  <g transform="translate(440,0)">
    <ellipse class="outline body" cx="20" cy="24" rx="16" ry="7.5"/>
    <ellipse class="shadow" cx="20" cy="29.5" rx="9" ry="2.5"/>
    <ellipse class="outline eye-sclera" cx="14" cy="16.5" rx="3.2" ry="2.2"/>
    <ellipse class="outline eye-sclera" cx="26" cy="16.5" rx="3.2" ry="2.2"/>
    <circle class="pupil" cx="15" cy="16.5" r="1.2"/>
    <circle class="pupil" cx="25" cy="16.5" r="1.2"/>
    <path class="outline mouth" d="M14 22 q6 3 12 0" />
    <rect class="tooth outline" x="18" y="20" width="3" height="3" rx="0.6"/>
    <ellipse class="outline leg" cx="14" cy="33" rx="2.6" ry="1.8"/>
    <ellipse class="outline leg" cx="26" cy="33" rx="2.6" ry="1.8"/>
    <rect class="flash" x="6" y="6" width="28" height="28" rx="6"/>
  </g>

  <!-- Die frames 12-16 -->
  <g transform="translate(480,0)">
    <ellipse class="outline body" cx="20" cy="20" rx="16" ry="10"/>
    <ellipse class="shadow" cx="20" cy="28" rx="10" ry="3"/>
    <ellipse class="outline eye-sclera" cx="14" cy="14" rx="4" ry="3"/>
    <ellipse class="outline eye-sclera" cx="26" cy="14" rx="4" ry="3"/>
    <circle class="pupil" cx="14.5" cy="14" r="1.6"/>
    <circle class="pupil" cx="25.5" cy="14" r="1.6"/>
    <path class="outline mouth" d="M12 22 q8 6 16 0 q-8 6 -16 0" />
    <rect class="tooth outline" x="18" y="20" width="4" height="4" rx="0.8"/>
    <ellipse class="outline leg" cx="14" cy="32" rx="3" ry="2"/>
    <ellipse class="outline leg" cx="26" cy="32" rx="3" ry="2"/>
  </g>

  <g transform="translate(520,0)">
    <ellipse class="outline body" cx="20" cy="19" rx="18" ry="11"/>
    <ellipse class="shadow" cx="20" cy="29" rx="11" ry="3.2"/>
    <ellipse class="outline eye-sclera" cx="13" cy="13" rx="4.6" ry="3.4"/>
    <ellipse class="outline eye-sclera" cx="27" cy="13" rx="4.6" ry="3.4"/>
    <circle class="pupil" cx="13.5" cy="13" r="1.6"/>
    <circle class="pupil" cx="26.5" cy="13" r="1.6"/>
    <path class="outline mouth" d="M10 22 q10 10 20 0" />
    <rect class="tooth outline" x="16" y="20" width="6" height="4" rx="0.8"/>
    <ellipse class="outline leg" cx="12" cy="33" rx="3" ry="2"/>
    <ellipse class="outline leg" cx="28" cy="33" rx="3" ry="2"/>
  </g>

  <g transform="translate(560,0)">
    <ellipse class="outline body" cx="20" cy="24" rx="17" ry="6.5"/>
    <ellipse class="shadow" cx="20" cy="29.5" rx="8" ry="2.2"/>
    <ellipse class="outline eye-sclera" cx="14" cy="16.5" rx="3" ry="2"/>
    <ellipse class="outline eye-sclera" cx="26" cy="16.5" rx="3" ry="2"/>
    <circle class="pupil" cx="14" cy="16.5" r="1.2"/>
    <circle class="pupil" cx="26" cy="16.5" r="1.2"/>
    <path class="outline mouth" d="M14 22 q6 2 12 0" />
    <rect class="tooth outline" x="18" y="20" width="3" height="3" rx="0.6"/>
    <ellipse class="outline leg" cx="10" cy="34" rx="2.6" ry="1.6"/>
    <ellipse class="outline leg" cx="30" cy="34" rx="2.6" ry="1.6"/>
  </g>

  <g transform="translate(600,0)">
    <circle class="outline body" cx="20" cy="26" r="6" />
    <ellipse class="shadow" cx="20" cy="31" rx="5" ry="1.6"/>
    <ellipse class="outline eye-sclera" cx="18" cy="24" rx="1.6" ry="1.2"/>
    <ellipse class="outline eye-sclera" cx="22" cy="24" rx="1.6" ry="1.2"/>
    <circle class="pupil" cx="18" cy="24" r="0.9"/>
    <circle class="pupil" cx="22" cy="24" r="0.9"/>
    <path class="outline mouth" d="M17 26 q3 2 6 0" />
    <g transform="translate(30,-6)">
      <circle class="smoke outline" cx="6" cy="22" r="4"/>
      <circle class="smoke outline" cx="10" cy="18" r="3"/>
      <circle class="smoke outline" cx="4" cy="18" r="2.6"/>
    </g>
  </g>

  <g transform="translate(640,0)">
    <g transform="translate(0,0)">
      <circle class="smoke outline" cx="14" cy="22" r="5"/>
      <circle class="smoke outline" cx="22" cy="18" r="4"/>
      <circle class="smoke outline" cx="8" cy="18" r="3"/>
      <circle class="smoke outline" cx="28" cy="24" r="2.2"/>
      <circle class="smoke outline" cx="18" cy="26" r="1.6"/>
    </g>
  </g>
</svg>