<svg xmlns="http://www.w3.org/2000/svg" viewBox="0 0 60 40" id="luna_run">
  <!-- Main body (slightly bouncing) -->
  <ellipse cx="30" cy="23" rx="22" ry="15" fill="#D2B48C" stroke="#8B4513" stroke-width="1.5"/>
  
  <!-- Face -->
  <ellipse cx="46" cy="21" rx="10" ry="8" fill="#E5C39E" stroke="#8B4513" stroke-width="1.5"/>
  
  <!-- Ears (perked up in running) -->
  <ellipse cx="50" cy="13" rx="4" ry="6" fill="#D2B48C" stroke="#8B4513" stroke-width="1" transform="rotate(-5, 50, 13)"/>
  <ellipse cx="42" cy="13" rx="4" ry="6" fill="#D2B48C" stroke="#8B4513" stroke-width="1" transform="rotate(5, 42, 13)"/>
  
  <!-- Eyes -->
  <circle cx="49" cy="18" r="2" fill="#000000"/>
  <circle cx="43" cy="18" r="2" fill="#000000"/>
  
  <!-- Nose -->
  <ellipse cx="46" cy="23" rx="3" ry="2" fill="#FFC0CB"/>
  
  <!-- Mouth (slightly open when running) -->
  <path d="M46 25 Q 46 28, 49 27" fill="none" stroke="#8B4513" stroke-width="0.75"/>
  
  <!-- Feet (in running position) -->
  <ellipse cx="15" cy="36" rx="5" ry="3" fill="#C19A6B" transform="rotate(-15, 15, 36)"/>
  <ellipse cx="30" cy="34" rx="5" ry="3" fill="#C19A6B"/>
  <ellipse cx="45" cy="36" rx="5" ry="3" fill="#C19A6B" transform="rotate(15, 45, 36)"/>
  
  <!-- Pattern on back -->
  <ellipse cx="20" cy="13" rx="5" ry="7" fill="#E5C39E" transform="rotate(-15, 20, 13)"/>
  <ellipse cx="10" cy="16" rx="4" ry="6" fill="#E5C39E" transform="rotate(-25, 10, 16)"/>
  
  <!-- Animation -->
  <animateTransform
    attributeName="transform"
    attributeType="XML"
    type="translate"
    values="0,0; 0,-2; 0,0"
    dur="0.4s"
    repeatCount="indefinite"/>
</svg>